<?xml version="1.0" encoding="UTF-8" standalone="no"?>
<svg width="45px" height="45px" viewBox="0 0 45 45" version="1.1" xmlns="http://www.w3.org/2000/svg" xmlns:xlink="http://www.w3.org/1999/xlink">
    <!-- Generator: Sketch 3.7.2 (28276) - http://www.bohemiancoding.com/sketch -->
    <title>Glyph</title>
    <desc>Created with Sketch.</desc>
    <defs>
        <polygon id="path-1" points="0 44.990625 45 44.990625 45 0 0 0"></polygon>
    </defs>
    <g id="RESOURCES" stroke="none" stroke-width="1" fill="none" fill-rule="evenodd">
        <g id="Glyph">
            <mask id="mask-2" fill="white">
                <use xlink:href="#path-1"></use>
            </mask>
            <g id="Clip-2"></g>
            <path d="M40,12.5 C40,13.1903125 39.4403125,13.75 38.75,13.75 L32.5,13.75 C31.8096875,13.75 31.25,13.1903125 31.25,12.5 L31.25,6.25 C31.25,5.5596875 31.8096875,5 32.5,5 L38.75,5 C39.4403125,5 40,5.5596875 40,6.25 L40,12.5 L40,12.5 Z M40,38.75 C40,39.4403125 39.4403125,40 38.75,40 L6.25,40 C5.5596875,40 5,39.4403125 5,38.75 L5,18.75 L9.2678125,18.75 C8.930625,19.9420312 8.75,21.2 8.75,22.5 C8.75,30.0939062 14.9060938,36.25 22.5,36.25 C30.0939063,36.25 36.25,30.0939062 36.25,22.5 C36.25,21.2 36.069375,19.9420312 35.7321875,18.75 L40,18.75 L40,38.75 L40,38.75 Z M22.5,13.75 C27.3325,13.75 31.25,17.6675 31.25,22.5 C31.25,27.3325 27.3325,31.25 22.5,31.25 C17.6675,31.25 13.75,27.3325 13.75,22.5 C13.75,17.6675 17.6675,13.75 22.5,13.75 L22.5,13.75 Z M38.75,0 L6.25,0 C2.79828125,0 0,2.79828125 0,6.25 L0,38.75 C0,42.2017187 2.79828125,45 6.25,45 L38.75,45 C42.2017187,45 45,42.2017187 45,38.75 L45,6.25 C45,2.79828125 42.2017187,0 38.75,0 L38.75,0 Z" id="Fill-1" fill="#FFFFFF" mask="url(#mask-2)"></path>
        </g>
    </g>
</svg>