<?xml version="1.0" encoding="UTF-8" standalone="no"?>
<svg width="84px" height="30px" viewBox="0 0 84 30" version="1.1" xmlns="http://www.w3.org/2000/svg" xmlns:xlink="http://www.w3.org/1999/xlink">
    <!-- Generator: Sketch 3.6.1 (26313) - http://www.bohemiancoding.com/sketch -->
    <title>logo_reduzida copy</title>
    <desc>Created with Sketch.</desc>
    <defs></defs>
    <g id="Page-1" stroke="none" stroke-width="1" fill="none" fill-rule="evenodd">
        <g id="logo_reduzida-copy" fill="#FFFFFF">
            <g id="Layer_1">
                <path d="M9.62109666,14.0027778 C8.00842284,18.2388889 9.57988694,22.5777778 8.20622951,26.4666667 C6.83257207,30.3555556 3.60447711,29.3833333 3.60447711,29.3833333 C-2.64566422,12.2305556 1.13189373,0.425 1.13189373,0.425 C4.02481628,0.244444444 6.43695873,1.425 7.08532504,3.73611111 C8.13754664,7.48611111 8.06886376,12.8555556 8.06886376,12.8555556 C8.06886376,12.8555556 9.71725269,7.99444444 10.3353985,6.95277778 C10.9535444,5.91111111 14.5937366,4.38333333 15.3492482,6.88333333 C15.3492482,6.88333333 15.7970605,8.27222222 14.7311023,9.24444444 C14.3190051,9.61944444 13.7805314,8.41111111 13.7805314,8.41111111 C13.7805314,8.41111111 12.3052233,6.95833333 9.62109666,14.0027778 L9.62109666,14.0027778 Z" id="Shape"></path>
                <path d="M26.2698248,14.75 C24.6214358,18.8388889 26.0939966,23.0833333 24.6983607,26.8388889 C23.3027247,30.5944444 20.1790277,29.5972222 20.1790277,29.5972222 C14.3766987,12.8277778 18.2366761,1.41666667 18.2366761,1.41666667 C21.0499265,1.28611111 23.3741549,2.475 23.9675749,4.73055556 C24.9318824,8.39166667 24.7917694,13.6194444 24.7917694,13.6194444 C24.7917694,13.6194444 26.4703787,8.92222222 27.0885246,7.91944444 C27.7066704,6.91666667 31.2671905,5.49166667 31.9622612,7.91944444 C31.9622612,7.91944444 32.3743584,9.275 31.3248841,10.2027778 C30.9182815,10.5611111 30.4127756,9.36944444 30.4127756,9.36944444 C30.4127756,9.36944444 28.9979084,7.94722222 26.2698248,14.75 L26.2698248,14.75 Z" id="Shape"></path>
                <path d="M44.0998982,14.0444444 C42.4789825,18.35 44.0998982,22.7472222 42.7262408,26.6972222 C41.3525834,30.6472222 38.0558055,29.675 38.0558055,29.675 C31.64632,12.2916667 35.4348672,0.297222222 35.4348672,0.297222222 C38.3689994,0.102777778 40.8223516,1.29166667 41.4789599,3.63055556 C42.5614019,7.43055556 42.5119503,12.8833333 42.5119503,12.8833333 C42.5119503,12.8833333 44.1603392,7.94444444 44.7894743,6.88333333 C45.4186094,5.82222222 49.1000113,4.25833333 49.8775014,6.79444444 C49.8775014,6.79444444 50.336303,8.20277778 49.2593556,9.19166667 C48.844511,9.575 48.2895534,8.35833333 48.2895534,8.35833333 C48.2895534,8.35833333 46.7977614,6.88333333 44.0998982,14.0444444 L44.0998982,14.0444444 Z" id="Shape"></path>
                <path d="M60.9903901,13.9972222 C59.3914528,18.2388889 60.9903901,22.5722222 59.6167326,26.4666667 C58.2430752,30.3611111 55.0259695,29.4 55.0259695,29.4 C48.7071453,12.2722222 52.4434935,0.452777778 52.4434935,0.452777778 C55.3364161,0.261111111 57.7513058,1.43333333 58.4079141,3.73888889 C59.4766196,7.48611111 59.4271679,12.8555556 59.4271679,12.8555556 C59.4271679,12.8555556 61.0563256,7.98888889 61.6717241,6.94444444 C62.2871227,5.9 65.9190729,4.35833333 66.6855738,6.85555556 C66.6855738,6.85555556 67.1361334,8.24444444 66.0756699,9.21944444 C65.66632,9.59722222 65.1223516,8.38611111 65.1223516,8.38611111 C65.1223516,8.38611111 63.6497908,6.93888889 60.9903901,13.9972222 L60.9903901,13.9972222 Z" id="Shape"></path>
                <path d="M77.76,14.7611111 C76.1116111,18.8416667 77.559446,23.0944444 76.1528208,26.8333333 C74.7461956,30.5722222 71.6307405,29.575 71.6307405,29.575 C65.8861051,12.8027778 69.776303,1.41388889 69.776303,1.41388889 C72.5895534,1.29444444 74.9055399,2.48611111 75.4934652,4.74722222 C76.4440362,8.40833333 76.27645,13.6194444 76.27645,13.6194444 C76.27645,13.6194444 77.9687959,8.93333333 78.5896891,7.93333333 C79.2105822,6.93333333 82.7711023,5.52222222 83.457931,7.96388889 C83.457931,7.96388889 83.8645336,9.32222222 82.812312,10.2444444 C82.4057094,10.6 81.9056981,9.41111111 81.9056981,9.41111111 C81.9056981,9.41111111 80.4990729,7.975 77.76,14.7611111 L77.76,14.7611111 Z" id="Shape"></path>
            </g>
        </g>
    </g>
</svg>