<?xml version="1.0" encoding="UTF-8" standalone="no"?>
<svg width="36px" height="45px" viewBox="0 0 36 45" version="1.1" xmlns="http://www.w3.org/2000/svg" xmlns:xlink="http://www.w3.org/1999/xlink">
    <!-- Generator: Sketch 3.6.1 (26313) - http://www.bohemiancoding.com/sketch -->
    <title>Page 1</title>
    <desc>Created with Sketch.</desc>
    <defs></defs>
    <g id="Page-1" stroke="none" stroke-width="1" fill="none" fill-rule="evenodd">
        <g fill="#141E3A">
            <path d="M28.5728289,4.8753 C28.5728289,4.8753 12.7457483,-5.12573226 3.80953987,3.52036452 C-1.29141944,8.45584839 -0.24301412,19.1977839 1.1198015,23.1656226 C1.1198015,23.1656226 3.99512542,25.2945581 15.58824,25.4882032 C15.58824,25.4882032 9.03375914,10.9166226 13.9154659,6.13326774 C19.4660598,0.694654839 28.5728289,4.8753 28.5728289,4.8753" id="Fill-1"></path>
            <g id="Group-5" transform="translate(1.112957, 9.036581)">
                <path d="M0.00692815615,15.8709774 L7.33380108,35.7095903 C7.33380108,35.7095903 20.1328044,35.0322677 30.5205868,24.5806548 C40.9080909,14.1290419 27.8308484,0.0968806452 27.8308484,0.0968806452 C27.8308484,0.0968806452 33.2231242,11.1642677 21.5240004,16.4516226 C13.1734855,20.2258161 0.00692815615,15.8709774 0.00692815615,15.8709774" id="Fill-3"></path>
            </g>
            <path d="M23.6495532,9.68280968 C27.1002757,11.7615194 28.7110025,15.5911645 27.2474643,18.2362935 C25.7839261,20.8814226 21.8000972,21.3404226 18.3493746,19.2617129 C14.898652,17.1830032 13.287647,13.3533581 14.7514635,10.708229 C16.2150017,8.0631 20.1988306,7.6041 23.6495532,9.68280968" id="Fill-6"></path>
        </g>
    </g>
</svg>